<?xml version="1.0" standalone="no"?>
<!DOCTYPE svg PUBLIC "-//W3C//DTD SVG 20010904//EN"
 "http://www.w3.org/TR/2001/REC-SVG-20010904/DTD/svg10.dtd">
<svg version="1.0" xmlns="http://www.w3.org/2000/svg"
 width="574.000000pt" height="175.000000pt" viewBox="0 0 574.000000 175.000000"
 preserveAspectRatio="xMidYMid meet">

<g transform="translate(0.000000,175.000000) scale(0.100000,-0.100000)"
fill="#000000" stroke="none">
<path d="M966 1705 c-20 -51 -61 -90 -106 -100 -16 -4 -30 -10 -30 -13 0 -4
24 -18 52 -32 44 -21 57 -34 79 -79 l27 -53 20 43 c23 53 50 79 104 100 l40
16 -57 28 c-50 24 -60 34 -82 81 -13 30 -26 54 -27 54 -2 0 -11 -20 -20 -45z"/>
<path d="M312 1606 c-48 -135 -107 -194 -238 -243 -41 -16 -72 -32 -71 -37 2
-5 25 -17 53 -26 137 -47 199 -104 246 -228 17 -45 36 -81 41 -79 5 1 23 38
40 82 42 110 102 170 212 212 44 17 81 36 83 41 2 6 -26 20 -62 32 -128 42
-190 103 -240 238 -15 39 -31 72 -34 72 -4 0 -17 -29 -30 -64z"/>
<path d="M1434 1278 c-25 -68 -84 -130 -149 -153 -27 -10 -54 -21 -58 -25 -5
-4 19 -17 52 -30 75 -28 131 -85 156 -159 9 -29 20 -49 24 -44 4 4 16 31 26
58 23 65 85 124 153 149 30 10 50 22 45 26 -4 4 -30 15 -58 25 -27 10 -66 34
-86 54 -20 20 -44 59 -54 86 -10 28 -21 54 -25 58 -4 5 -16 -15 -26 -45z"/>
<path d="M4960 1233 c-126 -21 -202 -89 -216 -195 -5 -33 -1 -57 14 -90 33
-75 63 -92 283 -152 103 -29 136 -78 83 -127 -23 -22 -34 -24 -117 -24 -82 0
-99 3 -159 32 l-66 31 -26 -56 -26 -57 21 -17 c12 -10 50 -27 86 -38 182 -56
366 -24 436 76 49 69 49 167 0 224 -34 41 -79 63 -197 94 -160 42 -196 70
-167 125 30 56 165 68 264 24 26 -12 50 -23 54 -23 4 -1 17 26 30 60 l23 61
-43 19 c-70 31 -198 46 -277 33z"/>
<path d="M2430 875 l0 -355 270 0 270 0 0 65 0 65 -190 0 -190 0 0 80 0 80
165 0 165 0 0 65 0 65 -165 0 -165 0 0 80 0 80 185 0 185 0 0 65 0 65 -265 0
-265 0 0 -355z"/>
<path d="M3036 1148 c20 -46 88 -206 151 -356 l116 -273 81 3 81 3 147 345
c81 190 148 348 148 353 0 4 -35 7 -77 7 l-78 0 -105 -250 c-58 -137 -107
-250 -110 -250 -3 0 -52 113 -110 250 l-104 250 -88 0 -87 0 35 -82z"/>
<path d="M3820 875 l0 -355 75 0 75 0 0 200 c0 110 3 200 8 200 4 0 50 -72
102 -160 l95 -159 40 -1 41 0 102 173 102 172 0 -212 0 -213 75 0 75 0 0 355
0 355 -67 0 -68 -1 -124 -215 c-68 -118 -127 -216 -130 -218 -3 -2 -64 94
-135 215 l-129 219 -68 0 -69 0 0 -355z"/>
<path d="M774 918 c-52 -137 -106 -192 -240 -240 -35 -13 -63 -27 -61 -33 2
-5 33 -21 69 -35 130 -50 181 -102 232 -238 15 -39 31 -70 35 -67 5 2 21 39
36 81 40 110 103 174 211 217 45 18 82 36 83 42 2 5 -33 22 -76 39 -110 42
-178 110 -218 219 -15 43 -31 80 -36 82 -4 3 -20 -28 -35 -67z"/>
<path d="M316 419 c-23 -63 -68 -109 -129 -133 -26 -10 -47 -21 -47 -25 0 -4
18 -13 40 -20 57 -17 100 -58 131 -126 l27 -60 16 39 c9 21 16 42 16 47 0 12
77 89 89 89 5 0 26 7 47 16 l39 16 -60 27 c-67 31 -107 72 -125 128 -19 57
-24 58 -44 2z"/>
<path d="M1332 280 c-23 -53 -42 -72 -100 -98 l-43 -19 55 -27 c47 -23 59 -35
82 -83 l28 -56 21 50 c25 55 61 88 105 98 17 4 30 10 30 13 0 4 -24 18 -52 32
-44 21 -57 34 -80 80 l-27 54 -19 -44z"/>
</g>
</svg>
